<?xml version="1.0" standalone="no"?>
<!DOCTYPE svg PUBLIC "-//W3C//DTD SVG 20010904//EN"
 "http://www.w3.org/TR/2001/REC-SVG-20010904/DTD/svg10.dtd">
<svg version="1.0" xmlns="http://www.w3.org/2000/svg"
 width="580.000000pt" height="387.000000pt" viewBox="0 0 580.000000 387.000000"
 preserveAspectRatio="xMidYMid meet">

<g transform="translate(0.000000,387.000000) scale(0.100000,-0.100000)"
fill="#000000" stroke="none">
<path d="M3011 3738 c-33 -42 -57 -85 -70 -128 -13 -40 -43 -97 -81 -150 -122
-174 -139 -202 -161 -258 -27 -69 -38 -233 -20 -300 l12 -43 70 95 c42 58 76
115 85 145 10 36 48 95 126 199 142 188 162 230 155 326 -5 69 -40 176 -58
176 -5 0 -31 -28 -58 -62z"/>
<path d="M3008 3268 c-34 -45 -61 -95 -72 -130 -17 -57 -52 -114 -153 -253
-28 -38 -64 -99 -80 -135 -26 -60 -28 -74 -28 -195 0 -184 5 -188 93 -68 39
54 72 107 72 118 0 38 47 120 121 215 155 198 174 237 167 339 -4 59 -46 181
-61 181 -3 0 -29 -33 -59 -72z"/>
<path d="M3009 2807 c-31 -40 -60 -88 -64 -107 -12 -55 -52 -127 -127 -230
-79 -108 -115 -173 -134 -245 -17 -61 -18 -200 -3 -260 l11 -44 74 101 c41 55
74 110 74 122 0 38 47 118 140 236 118 150 150 213 150 296 0 61 -25 150 -53
187 -11 15 -18 9 -68 -56z"/>
<path d="M3007 2338 c-31 -43 -60 -96 -70 -129 -9 -30 -39 -86 -65 -125 -27
-38 -71 -102 -99 -142 -33 -46 -60 -102 -78 -157 -25 -76 -27 -95 -23 -187 7
-152 11 -154 88 -50 35 48 72 110 81 138 25 76 38 97 151 246 120 158 143 209
136 301 -5 64 -42 177 -58 177 -5 0 -34 -33 -63 -72z"/>
<path d="M3009 1877 c-31 -40 -60 -88 -64 -107 -11 -52 -57 -133 -134 -238
-38 -51 -83 -125 -101 -164 -29 -61 -34 -86 -38 -171 -3 -59 0 -121 7 -153
l13 -54 74 101 c41 56 74 111 74 123 1 40 39 106 141 238 56 73 112 156 125
183 31 64 32 153 4 228 -36 96 -38 97 -101 14z"/>
<path d="M3011 1416 c-34 -42 -58 -85 -70 -127 -12 -37 -44 -97 -78 -146 -32
-46 -77 -111 -100 -145 -66 -95 -86 -156 -90 -278 -3 -69 0 -120 9 -148 l13
-43 68 95 c49 68 74 114 87 161 16 54 36 87 126 202 137 176 158 221 151 317
-5 67 -40 176 -57 176 -5 0 -31 -29 -59 -64z"/>
<path d="M3007 938 c-31 -40 -59 -86 -63 -103 -12 -51 -49 -115 -125 -220
-128 -176 -155 -251 -147 -415 7 -146 11 -148 96 -33 39 54 72 107 72 118 0
39 49 122 144 244 129 166 149 209 144 303 -4 70 -39 178 -58 178 -4 0 -33
-33 -63 -72z"/>
</g>
</svg>
