<?xml version="1.0" standalone="no"?>
<!DOCTYPE svg PUBLIC "-//W3C//DTD SVG 20010904//EN"
 "http://www.w3.org/TR/2001/REC-SVG-20010904/DTD/svg10.dtd">
<svg version="1.0" xmlns="http://www.w3.org/2000/svg"
 width="596.000000pt" height="620.000000pt" viewBox="0 0 596.000000 620.000000"
 preserveAspectRatio="xMidYMid meet">

<g transform="translate(0.000000,620.000000) scale(0.100000,-0.100000)"
fill="#000000" stroke="none">
<path d="M2890 5424 c-61 -11 -150 -50 -206 -90 -69 -48 -120 -113 -162 -200
-25 -55 -27 -69 -27 -184 0 -125 0 -127 37 -201 51 -102 128 -179 233 -230 45
-21 89 -39 99 -39 22 0 22 -1 34 -166 10 -133 10 -144 -9 -180 -10 -21 -17
-44 -15 -50 2 -6 -22 -23 -55 -39 -201 -95 -246 -346 -90 -499 l40 -39 -34
-66 c-76 -149 -99 -217 -115 -336 -16 -118 -116 -1502 -146 -2017 l-7 -118 30
0 c36 0 30 -48 68 560 38 623 42 623 44 -2 l1 -558 35 0 35 0 1 78 c1 87 16
66 18 -25 1 -49 3 -53 25 -53 26 0 28 11 39 195 2 28 4 -5 5 -72 l2 -123 34 0
c34 0 35 1 39 48 l3 47 2 -47 2 -48 50 0 50 0 2 88 c1 58 3 69 5 32 2 -30 5
-70 8 -87 l6 -33 72 3 72 2 6 60 6 60 1 -62 c2 -63 2 -63 32 -63 l30 0 1 118
c2 129 5 125 14 -20 l7 -98 29 0 29 0 1 83 c1 45 4 69 6 52 1 -16 6 -54 9 -82
5 -53 6 -53 40 -53 l34 0 1 543 c2 418 4 507 10 387 8 -145 42 -662 56 -847
l6 -83 28 0 c28 0 29 2 29 48 0 71 -65 1043 -100 1507 -21 270 -54 549 -70
599 -6 16 -10 40 -10 54 0 40 -39 151 -86 243 l-43 85 40 40 c158 154 112 407
-91 498 -48 22 -60 32 -60 50 0 13 -9 35 -20 48 -18 23 -19 33 -10 114 5 49
12 119 15 155 l6 66 42 13 c78 23 142 63 207 129 106 107 146 215 138 365 -12
191 -129 346 -316 416 -56 22 -186 34 -242 24z m206 -183 c63 -28 138 -103
165 -164 41 -95 29 -219 -32 -310 -27 -41 -135 -127 -160 -127 -5 0 -11 11
-15 24 -19 75 -125 82 -162 10 l-18 -34 -51 25 c-102 51 -164 147 -171 265 -5
96 21 170 82 234 98 100 241 130 362 77z"/>
</g>
</svg>
